<svg id="Layer_1" data-name="Layer 1" xmlns="http://www.w3.org/2000/svg" viewBox="0 0 31.67 31.67"><defs><style>.cls-1{fill:none;stroke:#000;stroke-miterlimit:10;stroke-width:0.67px;}</style></defs><title>facebook</title><path id="Path_281" data-name="Path 281" d="M13.64,25.11V16H11.85c0-.07,0-.11,0-.16V13.09c0-.13,0-.16.16-.16h1.64v-.19c0-.84,0-1.68,0-2.53A3.57,3.57,0,0,1,14,8.64a2.74,2.74,0,0,1,1.65-1.46,9.51,9.51,0,0,1,1.15-.26l.14,0h3.22v2.9c0,.3,0,.3-.3.3H18.18a.87.87,0,0,0-.8.59.76.76,0,0,0,0,.21v1.88c0,.12,0,.15.15.15h2.66c0,.09,0,.17,0,.25-.1.9-.21,1.8-.3,2.7,0,.11-.06.13-.15.13H17.35c0,.06,0,.1,0,.15V25c0,.05,0,.09,0,.13Z" transform="translate(-0.17 -0.17)"/><path id="Path_282" data-name="Path 282" class="cls-1" d="M16,31.5A15.5,15.5,0,1,0,.5,16h0A15.5,15.5,0,0,0,16,31.5Z" transform="translate(-0.17 -0.17)"/></svg>