<svg id="Layer_1" data-name="Layer 1" xmlns="http://www.w3.org/2000/svg" viewBox="0 0 31.67 31.67"><defs><style>.cls-1{fill:none;stroke:#000;stroke-miterlimit:10;stroke-width:0.67px;}</style></defs><title>instagram</title><g id="Group_1595" data-name="Group 1595"><path id="Path_283" data-name="Path 283" d="M16,22.62v.06c.78,0,1.56,0,2.34,0,.4,0,.79,0,1.19-.06a2.88,2.88,0,0,0,3-2.77.89.89,0,0,0,0-.23q.09-3.47,0-6.93a2.83,2.83,0,0,0-2.69-3,1.6,1.6,0,0,0-.31,0c-2.35-.05-4.71-.05-7.06,0a2.84,2.84,0,0,0-3,2.68v.3q-.08,3.47,0,6.93a2.86,2.86,0,0,0,2.73,3h.27c1.18,0,2.36,0,3.54,0M8,13.06c0-.37.09-.75.16-1.12a4.14,4.14,0,0,1,4-3.63c2.58-.08,5.16-.09,7.73,0A4.14,4.14,0,0,1,24,12.45q.12,3.71,0,7.41A4.14,4.14,0,0,1,19.88,24q-3.86.13-7.73,0a4.21,4.21,0,0,1-4.09-4.15c0-.2-.05-.4-.08-.6Z" transform="translate(-0.17 -0.17)"/><path id="Path_284" data-name="Path 284" d="M18.7,16.16A2.68,2.68,0,1,0,16,18.81h0a2.66,2.66,0,0,0,2.67-2.64h0M16,20.23a4.07,4.07,0,1,1,4.12-4.09A4.07,4.07,0,0,1,16,20.23h0" transform="translate(-0.17 -0.17)"/><path id="Path_285" data-name="Path 285" d="M19.37,11.92a1,1,0,1,1,.95.94.95.95,0,0,1-.95-.94" transform="translate(-0.17 -0.17)"/><path id="Path_286" data-name="Path 286" class="cls-1" d="M16,31.5A15.5,15.5,0,1,0,.5,16h0A15.5,15.5,0,0,0,16,31.5Z" transform="translate(-0.17 -0.17)"/></g></svg>