<svg id="Layer_1" data-name="Layer 1" xmlns="http://www.w3.org/2000/svg" viewBox="0 0 31.67 31.67"><defs><style>.cls-1{fill:none;stroke:#000;stroke-miterlimit:10;stroke-width:0.67px;}</style></defs><title>linkedin</title><g id="Group_1593" data-name="Group 1593"><path id="Path_289" data-name="Path 289" class="cls-1" d="M16,31.5A15.5,15.5,0,1,0,.5,16h0A15.5,15.5,0,0,0,16,31.5Z" transform="translate(-0.17 -0.17)"/><path id="Path_290" data-name="Path 290" d="M23.57,22H20.44v-.35c0-1.47,0-2.94,0-4.41a4.54,4.54,0,0,0-.14-1.1,1.55,1.55,0,0,0-1.92-1,1.61,1.61,0,0,0-.52.27,1.69,1.69,0,0,0-.73,1.44V22H14V12.89h3.12v1.2a.41.41,0,0,0,.1-.09,3.32,3.32,0,0,1,3.66-1.25,3.17,3.17,0,0,1,2.54,2.64,7.42,7.42,0,0,1,.15,1.33c0,1.68,0,3.35,0,5,0,.06,0,.13,0,.23" transform="translate(-0.17 -0.17)"/><rect id="Rectangle_130" data-name="Rectangle 130" x="8.95" y="12.72" width="3.1" height="9.1"/><path id="Path_291" data-name="Path 291" d="M10.67,11.57a1.59,1.59,0,0,1-1.75-1.41A1.72,1.72,0,0,1,9,9.45a1.84,1.84,0,0,1,2.3-.94A1.54,1.54,0,0,1,12.4,10.4v0a1.67,1.67,0,0,1-1.73,1.15" transform="translate(-0.17 -0.17)"/></g></svg>