<svg id="Layer_1" data-name="Layer 1" xmlns="http://www.w3.org/2000/svg" xmlns:xlink="http://www.w3.org/1999/xlink" viewBox="0 0 14.65 17.38"><defs><style>.cls-1{fill:none;}.cls-2{clip-path:url(#clip-path);}.cls-3{fill:#1d1d1b;}</style><clipPath id="clip-path" transform="translate(-1.67 -0.31)"><rect class="cls-1" x="1.67" y="0.31" width="14.65" height="17.38"/></clipPath></defs><title>login</title><g class="cls-2"><g id="Component_2" data-name="Component 2"><path id="Path_118" data-name="Path 118" class="cls-3" d="M9,9.36a4.53,4.53,0,1,1,4.53-4.52h0A4.52,4.52,0,0,1,9,9.36ZM9,1.44a3.4,3.4,0,1,0,3.4,3.4A3.4,3.4,0,0,0,9,1.44Z" transform="translate(-1.67 -0.31)"/><path id="Path_119" data-name="Path 119" class="cls-3" d="M16.33,17.69H1.67v-.57a7.33,7.33,0,0,1,14.66,0ZM2.83,16.56H15.17a6.2,6.2,0,0,0-12.34,0Z" transform="translate(-1.67 -0.31)"/></g></g></svg>