<svg id="Layer_1" data-name="Layer 1" xmlns="http://www.w3.org/2000/svg" viewBox="0 0 31.67 31.67"><defs><style>.cls-1{fill:none;stroke:#000;stroke-miterlimit:10;stroke-width:0.67px;}</style></defs><title>pinterest</title><g id="Group_1594" data-name="Group 1594"><path id="Path_292" data-name="Path 292" class="cls-1" d="M16,31.5A15.5,15.5,0,1,0,.5,16h0A15.5,15.5,0,0,0,16,31.5Z" transform="translate(-0.17 -0.17)"/><path id="Path_293" data-name="Path 293" d="M15.13,19.51c-.12.56-.22,1.08-.35,1.6a11.06,11.06,0,0,1-1.11,3,4.75,4.75,0,0,1-1.22,1.42l-.12.08c0-.51-.09-1-.1-1.45A15.12,15.12,0,0,1,12.75,20c.31-1.27.63-2.53.94-3.8a.53.53,0,0,0,0-.33,3.65,3.65,0,0,1-.08-2.7A2.93,2.93,0,0,1,14.25,12,1.61,1.61,0,0,1,16.52,12l.13.15a1.52,1.52,0,0,1,.21,1.1,13.79,13.79,0,0,1-.64,2.47,7.55,7.55,0,0,0-.33,1.61A1.35,1.35,0,0,0,17,18.81h.19a2.48,2.48,0,0,0,2.38-1,6.19,6.19,0,0,0,1.24-3.15,6.92,6.92,0,0,0-.18-2.79A3.34,3.34,0,0,0,19.24,10a4.7,4.7,0,0,0-4.8-.26A5.17,5.17,0,0,0,12,11.88a4.37,4.37,0,0,0-.5,3.4,3.89,3.89,0,0,0,.46.91,1.56,1.56,0,0,1-.05,1.72s-.14.06-.2.05A2.86,2.86,0,0,1,9.47,15.6,6.28,6.28,0,0,1,10.15,11a6.91,6.91,0,0,1,3.5-3A8.2,8.2,0,0,1,18,7.65,7.13,7.13,0,0,1,21.1,8.89a5.2,5.2,0,0,1,2.16,3.34,8.54,8.54,0,0,1-.2,4.05,6.65,6.65,0,0,1-1.65,2.92,4.71,4.71,0,0,1-4.08,1.44,3.53,3.53,0,0,1-1.6-.72l-.6-.4" transform="translate(-0.17 -0.17)"/></g></svg>