<svg id="Layer_1" data-name="Layer 1" xmlns="http://www.w3.org/2000/svg" viewBox="0 0 31.67 31.67"><defs><style>.cls-1{fill:none;stroke:#000;stroke-miterlimit:10;stroke-width:0.67px;}</style></defs><title>twitter</title><g id="Group_1596" data-name="Group 1596"><path id="Path_287" data-name="Path 287" d="M7.53,21.53a7,7,0,0,0,5.06-1.45,3.59,3.59,0,0,1-2-.71,3.46,3.46,0,0,1-1.21-1.68c.25,0,.5,0,.75,0a3.57,3.57,0,0,0,.73-.1,3.52,3.52,0,0,1-2.28-1.74,3.12,3.12,0,0,1-.43-1.71,6.39,6.39,0,0,0,.73.27,4,4,0,0,0,.77.13,3.6,3.6,0,0,1-1-4.67,10.05,10.05,0,0,0,7.22,3.67c0-.23-.05-.43-.06-.63a3.37,3.37,0,0,1,1.11-2.74A3.42,3.42,0,0,1,20,9.31a3.33,3.33,0,0,1,1.74.93.22.22,0,0,0,.24.07,6.85,6.85,0,0,0,1.86-.7l.21-.1a3.61,3.61,0,0,1-1.44,1.89,6.28,6.28,0,0,0,1.91-.51,6.74,6.74,0,0,1-1.07,1.26c-.17.15-.35.3-.54.44a.3.3,0,0,0-.12.26,9.48,9.48,0,0,1-.36,3,10.52,10.52,0,0,1-1,2.35,10.24,10.24,0,0,1-1.67,2.19,9.18,9.18,0,0,1-3.08,2,10.58,10.58,0,0,1-5.89.52,9.64,9.64,0,0,1-2.35-.82l-.92-.5,0,0" transform="translate(-0.17 -0.17)"/><path id="Path_288" data-name="Path 288" class="cls-1" d="M16,31.5A15.5,15.5,0,1,0,.5,16h0A15.5,15.5,0,0,0,16,31.5Z" transform="translate(-0.17 -0.17)"/></g></svg>