<svg id="Layer_1" data-name="Layer 1" xmlns="http://www.w3.org/2000/svg" viewBox="0 0 58.53 58.53"><defs><style>.cls-1{fill:none;stroke:#000;stroke-miterlimit:10;stroke-width:1.52px;}</style></defs><title>veeve_monogram</title><g id="Group_1460" data-name="Group 1460"><path id="Path_278" data-name="Path 278" d="M37.28,23a3.63,3.63,0,0,0-2.5-3.31l.1-.19H45.29a2.83,2.83,0,0,1-.5.4A7.36,7.36,0,0,0,41.06,23c-1.12,1.82-2.55,4.26-3.58,6.13,0,0-.08-5-.2-6.17" transform="translate(-0.74 -0.74)"/><path id="Path_279" data-name="Path 279" d="M29.61,45.25l-.52-1q-5-10.15-9.95-20.3a17.81,17.81,0,0,0-1.47-2.29,4.32,4.32,0,0,0-2.45-1.72.78.78,0,0,1-.51-.43H28.77c0,.07,0,.13.05.19l-.66.26a1.88,1.88,0,0,0-1.46,2.4,15.37,15.37,0,0,0,1,3c1.65,3.63,5.38,11.57,5.56,11.89-.33.77-3.45,7.73-3.63,8.08" transform="translate(-0.74 -0.74)"/><path id="Path_280" data-name="Path 280" class="cls-1" d="M30,58.51A28.51,28.51,0,1,0,1.49,30,28.52,28.52,0,0,0,30,58.51Z" transform="translate(-0.74 -0.74)"/></g></svg>