<svg id="Layer_1" data-name="Layer 1" xmlns="http://www.w3.org/2000/svg" viewBox="0 0 135.61 23.47"><defs><style>.cls-1{fill:#020202;}</style></defs><title>logo</title><g id="Group_779" data-name="Group 779"><path id="Path_16" data-name="Path 16" class="cls-1" d="M9.18,17.16,15.5.26h2.67l-9,23.48L.19.26H2.87Z" transform="translate(-0.19 -0.26)"/><path id="Path_17" data-name="Path 17" class="cls-1" d="M34.41.26H45.89V2.55h-9V9.14h8.76v2.29H36.87v8.7h9v2.29H34.41Z" transform="translate(-0.19 -0.26)"/><path id="Path_18" data-name="Path 18" class="cls-1" d="M64.76.26H76.25V2.55h-9V9.14H76v2.29H67.23v8.7h9v2.29H64.76Z" transform="translate(-0.19 -0.26)"/><path id="Path_19" data-name="Path 19" class="cls-1" d="M101.21,17.16,107.53.26h2.67l-9,23.48L92.22.26h2.67Z" transform="translate(-0.19 -0.26)"/><path id="Path_20" data-name="Path 20" class="cls-1" d="M124.32.26h11.49V2.55h-9V9.14h8.75v2.29h-8.75v8.7h9v2.29H124.32Z" transform="translate(-0.19 -0.26)"/></g></svg>